<svg xmlns="http://www.w3.org/2000/svg" xmlns:xlink="http://www.w3.org/1999/xlink" width="900px" height="670px" viewBox="0 0  900 670" preserveAspectRatio="xMidYMid meet" ><rect id="svgEditorBackground" x="0" y="0" width="900" height="670" style="fill: none; stroke: none;"/><defs id="svgEditorDefs"><polygon id="svgEditorShapeDefs" style="fill:khaki;stroke:black;vector-effect:non-scaling-stroke;stroke-width:1px;"/></defs><line id="e1_line" x1="110" y1="97" x2="111" y2="573" style="stroke:black;fill:none;stroke-width:1px;" /><line id="e2_line" x1="556" y1="573" x2="109" y2="574" style="stroke:black;fill:none;stroke-width:1px;" /><text style="fill:black;font-family:Tahoma;font-size:20px;" x="5" y="290" id="e3_texte" >Complexity</text><text style="fill:black;font-family:Tahoma;font-size:20px;" x="303" y="597" id="e4_texte" >n</text><line id="e6_line" x1="110" y1="97" x2="102" y2="107" style="stroke:black;fill:none;stroke-width:1px;"/><line id="e3_line" x1="116.06239318847656" y1="106.03376007080078" x2="108.06239318847656" y2="116.03377532958984" style="stroke:black;fill:none;stroke-width:1px;" transform="matrix(0.0346456 -1.01337 1.03228 0.0352918 -3.15106 211.517)"/><line id="e4_line" x1="-328.7534484863281" y1="543.9777221679688" x2="-336.7534484863281" y2="553.9777221679688" style="stroke:black;fill:none;stroke-width:1px;" transform="matrix(0.0346456 -1.01337 1.03228 0.0352918 -3.15106 211.517)"/><line id="e5_line" x1="558" y1="572" x2="550" y2="582" style="stroke:black;fill:none;stroke-width:1px;"/><line id="e9_line" x1="103" y1="560" x2="510" y2="560" style="stroke:black;fill:none;stroke-width:1px;" /><text style="fill:black;font-family:Arial;font-size:15.7px;" x="499" y="557" id="e10_texte" ><tspan x="499">O(1) </tspan><tspan style="font-style:italic;">constant time</tspan><tspan/></text><path d="M111,573a968.050716,968.050716,0,0,1,417,-88" style="fill:none;stroke:black;stroke-width:1px;" id="e11_circleArc"/><text style="fill:black;font-family:Arial;font-size:15.7px;" x="534" y="479" id="e12_texte" ><tspan x="541" y="">O(log n)</tspan><tspan style="font-style:italic;"> log time</tspan><tspan/></text><line id="e13_line" x1="112" y1="571" x2="533" y2="357" style="stroke:black;fill:none;stroke-width:1px;" /><text style="fill:black;font-family:Arial;font-size:15.7px;" x="525" y="185" id="e14_texte" ></text><text style="fill:black;font-family:Arial;font-size:15.7px;" x="465" y="363" id="e15_texte" ><tspan x="538" dy="" y="">O(n) </tspan><tspan style="font-style:italic;">linear time</tspan><tspan/></text><path d="M113,572a1565.3876552089,1565.3876552089,0,0,0,375,-276" style="fill:none;stroke:black;stroke-width:1px;" id="e16_circleArc"/><path d="M113,572a697.969039,697.969039,0,0,0,315,-368" style="fill:none;stroke:black;stroke-width:1px;" id="e3_circleArc"/><path d="M111,571a582.20262,582.20262,0,0,0,175,-437" style="fill:none;stroke:black;stroke-width:1px;" id="e4_circleArc"/><text style="fill:black;font-family:Arial;font-size:15.7px;" x="491" y="278" id="e17_texte" ><tspan x="491">O(n * log n)</tspan><tspan style="font-style:italic;"> log linear time</tspan><tspan/></text><text style="fill:black;font-family:Arial;font-size:15.7px;" x="430" y="193" id="e18_texte" ><tspan x="430">O(n^2) </tspan><tspan style="font-style:italic;">quadratic time</tspan><tspan/></text><text style="fill:black;font-family:Arial;font-size:15.7px;" x="286" y="124" id="e19_texte" ><tspan x="286">O(n!) </tspan><tspan style="font-style:italic;">factorial time</tspan><tspan/></text></svg>