<svg version="1.1" xmlns="http://www.w3.org/2000/svg" viewBox="0 0 335 360.4221990381966" width="335" height="360.4221990381966">
  <!-- svg-source:excalidraw -->
  
  <defs>
    <style>
      @font-face {
        font-family: "Virgil";
        src: url("https://excalidraw.com/FG_Virgil.woff2");
      }
      @font-face {
        font-family: "Cascadia";
        src: url("https://excalidraw.com/Cascadia.woff2");
      }
    </style>
  </defs>
  <rect x="0" y="0" width="335" height="360.4221990381966" fill="#ffffff"></rect><g transform="translate(10 78) rotate(0 17 15.5)"><path d="M13.107246274714262 1.0278285309984856 C16.445504211750023 0.09584567922837961, 22.458652915066537 -0.07866327204520451, 25.554677143343056 1.3488934440350917 C28.650701371619576 2.776450160115388, 30.372384994685913 6.475976433225968, 31.68339164437337 9.593168827480262 C32.99439829406083 12.710361221734557, 34.29102914383373 16.883520806274806, 33.420717041467796 20.052047809560854 C32.55040493910186 23.220574812846902, 29.419749113547848 26.90406193068963, 26.461519030177758 28.60433084719655 C23.50328894680767 30.30459976370347, 19.4438656910472 30.821895644043355, 15.671336541247255 30.253661308602382 C11.898807391447308 29.68542697316141, 6.369678961032424 27.479688918013956, 3.8263441313780753 25.194924834550704 C1.2830093017237272 22.910160751087453, 0.44278087273577693 19.827765748283497, 0.4113275633211657 16.54507680782287 C0.3798742539065545 13.262387867362245, 1.2408047714157853 8.23929771018374, 3.637624274890408 5.498791191786951 C6.034443778365031 2.7582846733901625, 12.465173382114756 1.1237647013033356, 14.792244584168902 0.10203769744213531 C17.119315786223048 -0.919689306419065, 17.39393131274182 -0.8391175854627863, 17.60005148721529 -0.6315708313802499 M9.907140382651558 1.5701654967834529 C13.103332376860978 -0.09425900807621512, 19.202361267921 -0.909125918414367, 22.609572139856223 0.27388645217091856 C26.016783011791446 1.456898822756204, 28.637725993122324 5.539965436660507, 30.35040561426291 8.668239720295166 C32.0630852354035 11.796514003929824, 33.236067421908274 16.020179432760422, 32.88564986669975 19.043532153978866 C32.53523231149123 22.06688487519731, 30.962682442862082 24.701710972514125, 28.247900283011784 26.808356047605837 C25.533118123161486 28.91500112269755, 20.163856595571602 31.45646844666026, 16.59695690759796 31.683402604529142 C13.03005721962432 31.910336762398025, 9.674493566519622 30.561283952067576, 6.846502155169944 28.169960994819135 C4.018510743820265 25.778638037570694, 0.4859835667945873 20.445130897532948, -0.3709915605001086 17.3354648610385 C-1.2279666877948046 14.225798824544048, -0.01488132623103433 12.360206462561854, 1.704651391401768 9.511964775852434 C3.42418410903457 6.663723089143014, 8.391604063060976 1.489454371217975, 9.946204745296706 0.24601474078198216 C11.500805427532436 -0.9974248896540108, 10.686801790657485 1.4476688358046164, 11.03225548481615 2.0513269932364757" stroke="#000000" stroke-width="1" fill="none"></path></g><g><g transform="translate(47 99) rotate(0 31.600409471625483 -1.9871340770274628)"><path d="M0.22308932729065423 -0.055082352831959724 C11.141990178699297 -0.725417339677612, 53.52656314161917 -3.1372575679173074, 64.31974644847215 -3.9191858012229206 M-1.118927505221218 -1.129604533407837 C9.7743750043648 -1.5974976401465633, 52.56438992201661 -1.8907410028514762, 63.539567870292814 -2.3393330956436693" stroke="#000000" stroke-width="1" fill="none"></path></g><g transform="translate(47 99) rotate(0 31.600409471625483 -1.9871340770274628)"><path d="M35.49094776099726 9.075508943426824 C41.31425451597733 7.945469488493009, 45.54128147426564 2.748429242194824, 61.88898643778637 -1.5556616141088306 M35.072922272032045 8.567131103615678 C45.026647490966475 4.175623331975128, 54.590017157902295 1.2541983833202384, 62.77712142860517 -2.3915197998844087" stroke="#000000" stroke-width="1" fill="none"></path></g><g transform="translate(47 99) rotate(0 31.600409471625483 -1.9871340770274628)"><path d="M35.03682965714827 -11.440674403716377 C40.968779663468396 -8.457479755530452, 45.28687021896865 -9.540441657856409, 61.88898643778637 -1.5556616141088306 M34.618804168183054 -11.949052243527523 C44.75711210459508 -9.561171494950035, 54.47047891505325 -5.706013717725504, 62.77712142860517 -2.3915197998844087" stroke="#000000" stroke-width="1" fill="none"></path></g></g><g transform="translate(115 76) rotate(0 15.5 18)"><path d="M21.967570560055496 2.493594974341544 C25.091268455576063 3.954668192193429, 28.875318283673867 7.085584750324914, 30.39395639416746 10.342246118576991 C31.912594504661055 13.598907486829068, 31.975530739989278 18.22226112930373, 31.079399223017063 22.033563183854003 C30.183267706044848 25.844865238404275, 27.85320281490247 30.8035761993373, 25.017167292334175 33.21005844587862 C22.18113176976588 35.616540692419946, 17.429619133672148 37.029914962586986, 14.063186087607283 36.472456663101944 C10.696753041542417 35.9149983636169, 7.061662810738115 32.80247752360513, 4.818569015944977 29.86530864896836 C2.5754752211518395 26.928139774331587, 0.9776841530481659 22.587355236451113, 0.6046233188484571 18.84944341528132 C0.23156248464874835 15.111531594111531, 0.8501941614098645 10.40760507861757, 2.5802040107467246 7.437837721949613 C4.310213860083585 4.4680703652816565, 7.097964520848935 1.5725241563950596, 10.984682414869617 1.0308392752735855 C14.8714003088903 0.48915439415211137, 23.335341194538923 3.310891876005639, 25.900511374870817 4.187728435220768 C28.46568155520271 5.064564994435896, 26.607757586323775 6.059863623315305, 26.37570349686098 6.291858630564358 M17.691309121832198 -0.4879518184482734 C20.877121030023023 0.3057379252841811, 25.287265376867836 3.8584979805702333, 27.736455983926497 7.230146752333974 C30.185646590985158 10.601795524097716, 32.40674625554137 16.04605828883301, 32.38645276418416 19.74194081213417 C32.366159272826955 23.437823335435333, 29.98491839609707 26.50914325483244, 27.614695035783242 29.40544189214094 C25.244471675469416 32.30174052944944, 21.66036944698397 36.575598480763986, 18.165112602301203 37.11973263598516 C14.669855757618437 37.66386679120633, 9.519358088552647 34.962715941830204, 6.643153967686645 32.67024682346796 C3.7669498468206437 30.377777705105718, 1.7292509569501529 26.918432824078103, 0.9078878771051908 23.364917925811692 C0.08652479726022888 19.811403027545282, 0.5868172787609041 15.10334875650242, 1.714975488616874 11.349157433869507 C2.843133698472844 7.5949661112365945, 5.092005848752489 2.688344663068171, 7.67683713624101 0.8397699900142115 C10.261668423729532 -1.0088046830397477, 15.436910948144352 0.4747272366429982, 17.223963213548004 0.2577093955457528 C19.011015478951656 0.04069155444850736, 18.440065684816048 -0.9593314522640306, 18.399150728662928 -0.46233705656926105" stroke="#000000" stroke-width="1" fill="none"></path></g><g transform="translate(189 82) rotate(0 17 15.5)"><path d="M11.584307814416109 1.7529498406607438 C14.961411435763576 0.6057184384208867, 19.722380267104608 0.043847096424829424, 23.17939585531463 1.197406709509096 C26.636411443524654 2.3509663225933624, 30.58519385345214 5.8613720958284485, 32.32640134367624 8.674307519166343 C34.06760883390034 11.487242942504237, 34.44583618964746 15.043805536773288, 33.62664079665923 18.075019249536457 C32.807445403671004 21.106232962299625, 30.275047098761032 24.778288506901063, 27.411228985746867 26.861589795745353 C24.5474108727327 28.944891084589642, 20.02722515116998 30.376133858171848, 16.443732118574246 30.5748269826022 C12.860239085978511 30.773520107032553, 8.767357017060833 30.07784415598361, 5.910270790172463 28.053748542327472 C3.053184563284093 26.029652928671336, -0.26494812667253803 21.849886153554095, -0.6987852427559744 18.430253300665377 C-1.1326223588394109 15.010620447776661, 1.100705099157052 10.667325161249304, 3.307248093671845 7.5359514249951705 C5.513791088186638 4.404577688741037, 10.64927538724448 0.872152449642126, 12.540472724332783 -0.35798911685942336 C14.431670061421087 -1.5881306833609727, 14.42635010831556 -0.3251150673723888, 14.654432116201667 0.1551020259858742 M22.09891012529921 0.29332020861275865 C25.52176980370202 0.9878671593939211, 30.662734224845227 5.003574270982279, 32.5382509023691 7.781233522525419 C34.41376757989297 10.558892774068559, 34.24441383065035 13.631913105345111, 33.35201019044244 16.959275717871602 C32.45960655023453 20.286638330398095, 29.83210173385566 25.43140990071622, 27.18382906112166 27.745409197684367 C24.53555638838766 30.059408494652516, 21.006112099665536 30.774907095961293, 17.462374154038457 30.843271499680498 C13.91863620841138 30.911635903399702, 8.911493306757057 30.385294139851315, 5.921401387359195 28.155595619999602 C2.931309467961333 25.92589710014789, -0.1415432673656314 20.98641823850042, -0.47817736234871333 17.465080380570225 C-0.8148114573317953 13.94374252264003, 2.0775260180645834 9.860867087364195, 3.901596817460703 7.027568472418431 C5.725667616856823 4.1942698574726665, 7.333330752705738 1.4849864064313247, 10.466247434028006 0.46528869089563685 C13.599164115350273 -0.554409024640051, 20.68401705347308 0.686315435160993, 22.699096905394306 0.9093821792043038 C24.71417675731553 1.1324489232476145, 22.48044026088094 1.6768193348070783, 22.556726545555353 1.8036891551555012" stroke="#000000" stroke-width="1" fill="none"></path></g><g><g transform="translate(226 103) rotate(0 31.935802381727797 -1.523345993245016)"><path d="M0.17022191472351555 -0.8179543811827898 C10.57203597413997 -1.3848256229112548, 52.23244206694265 -4.055653277908762, 62.92406592555344 -4.413707609847188 M-1.1995503093861044 1.367015623357147 C9.515194842411825 1.0569047279221317, 54.250855283134925 -2.071294460588445, 65.07115507284179 -3.0934788537956774" stroke="#000000" stroke-width="1" fill="none"></path></g><g transform="translate(226 103) rotate(0 31.935802381727797 -1.523345993245016)"><path d="M36.41841434616403 7.574601569714989 C46.55118251052261 5.59108911598686, 58.31744459320626 1.2533867630095283, 65.50796120213344 -2.024811816383153 M37.373339649511436 8.7739194524838 C47.783161689819785 4.25748075053827, 58.550147905510386 0.6929547966199099, 64.13789006387815 -2.7287265378795564" stroke="#000000" stroke-width="1" fill="none"></path></g><g transform="translate(226 103) rotate(0 31.935802381727797 -1.523345993245016)"><path d="M34.792968902591454 -12.882131539357154 C45.310282783611925 -7.856094914440391, 57.63369088629613 -5.181942468475468, 65.50796120213344 -2.024811816383153 M35.74789420593886 -11.682813656588344 C46.759100007904294 -8.394584310995189, 58.14591432263851 -4.158382134801721, 64.13789006387815 -2.7287265378795564" stroke="#000000" stroke-width="1" fill="none"></path></g></g><g transform="translate(294 80) rotate(0 15.5 18)"><path d="M13.07478736744024 0.48516962224703875 C16.193716669975913 -0.3777144519689726, 20.994627157678778 1.3854967364917279, 23.8132396219992 3.2442531650493915 C26.631852086319626 5.103009593607055, 29.01442762478505 8.24526885306796, 29.98646215336278 11.63770819359302 C30.95849668194051 15.03014753411808, 30.842346425047978 20.007979154856912, 29.645446793465585 23.598889208199754 C28.44854716188319 27.189799261542596, 25.625920038363844 31.03591038409845, 22.805064363868418 33.18316851365008 C19.98420868937299 35.33042664320171, 16.075889234237803 37.028767575205705, 12.720312746493015 36.482437985509534 C9.364736258748229 35.93610839581336, 4.6318113001394146 33.00931993171392, 2.6716054373996982 29.905190975473033 C0.7113995746599819 26.801062019232152, 0.8750124910626994 21.906915806877343, 0.9590775700547169 17.85766424806424 C1.0431426490467344 13.808412689251135, 1.1116856274395448 8.608602225237375, 3.1759959113518033 5.609681622594399 C5.240306195264061 2.6107610199514233, 11.431187451996358 0.6302870970549318, 13.344939273528269 -0.13585936779361774 C15.258691095060179 -0.9020058326421673, 14.479819997068061 0.6668559107540968, 14.658506840543271 1.0128028335031019 M22.67727499615122 1.472501694529786 C25.729748041931614 2.6745838280401895, 27.96883823786462 5.297743112748323, 29.181522474711652 8.853076289770518 C30.394206711558684 12.408409466792714, 30.62126848773698 18.855123837994967, 29.953380417233415 22.80450075666296 C29.28549234672985 26.753877675330955, 27.788894634818256 30.203400083546388, 25.17419405169026 32.549337801778485 C22.559493468562266 34.89527552001058, 17.812285622109066 37.25575844484975, 14.265176918465436 36.880127066055536 C10.718068214821807 36.504495687261326, 6.010612511901597 33.25386504030312, 3.891541829828487 30.295549529013208 C1.7724711477553776 27.337234017723297, 1.9005165278894351 22.954999474328144, 1.5507528260267804 19.130233998316072 C1.2009891241641257 15.305468522304002, 0.2081140301394635 10.448692094029672, 1.7929596186525583 7.346956672940783 C3.377805207165653 4.245221251851893, 7.757876723443278 1.3860620060195257, 11.059826357105349 0.5198214717827305 C14.36177599076742 -0.3464190624540645, 19.687904503505507 2.0386509285371157, 21.604657420624978 2.1495134675200127 C23.52141033774445 2.2603760065029097, 22.374203905261073 1.1104361279601365, 22.560343859822176 1.1849967056801134" stroke="#000000" stroke-width="1" fill="none"></path></g><g><g transform="translate(151 98) rotate(0 20.315381905222296 -1.1955568451434146)"><path d="M0.08526766486465931 -0.04454931803047657 C7.107117404416203 -0.4691047587742408, 35.14221615977585 -1.9504181264589229, 41.95986935086548 -2.346564372256398 M-1.3291055404208603 -1.1135416553355753 C5.546194023583085 -1.3816209542689224, 33.54326077470556 -0.9558108546274405, 40.99075529644266 -0.9910854164697231" stroke="#000000" stroke-width="1" fill="none"></path></g><g transform="translate(151 98) rotate(0 20.315381905222296 -1.1955568451434146)"><path d="M21.121117247938397 6.023171814229359 C26.262066141154804 2.3713339841739893, 31.793449995262023 1.5415282748426105, 39.50160595135763 0.2808779842965303 M20.50719158697802 5.217591595906784 C25.297934917793647 4.081151686366836, 30.29000564475009 3.3006687138028123, 40.55485322898254 -0.41978378390893356" stroke="#000000" stroke-width="1" fill="none"></path></g><g transform="translate(151 98) rotate(0 20.315381905222296 -1.1955568451434146)"><path d="M21.200688435984905 -8.357731520014159 C26.342961623900234 -7.90044422106475, 31.85160953007987 -4.621181341802977, 39.50160595135763 0.2808779842965303 M20.58676277502453 -9.163311738336734 C25.46309177860695 -6.743905794970539, 30.435487262594037 -3.9684814829187944, 40.55485322898254 -0.41978378390893356" stroke="#000000" stroke-width="1" fill="none"></path></g></g><g transform="translate(18.98596453241248 266.4990577068111) rotate(333.8860873697093 17 15.5)"><path d="M14.258543122647216 0.2631378130286546 C17.783840143537677 -0.37032708414908255, 23.37058019080771 0.26840831582694147, 26.384076696632565 2.0443710112720357 C29.39757320245742 3.82033370671713, 31.315224485191433 7.743588173004394, 32.33952215759634 10.91891398569922 C33.363819830001255 14.094239798394046, 33.65053096527307 18.20316546577056, 32.529862731062025 21.09632588744099 C31.409194496850983 23.98948630911142, 28.755134248526765 26.59479741900106, 25.615512752330087 28.2778765157218 C22.47589125613341 29.96095561244254, 17.484894594157005 31.65037273315852, 13.692133753881961 31.194800467765425 C9.899372913606916 30.73922820237233, 5.144795071650499 28.1567915863612, 2.8589477106798142 25.54444292336324 C0.5731003497091298 22.932094260365275, -0.3461640710577362 18.979288018120936, -0.0229504119421442 15.520708489777657 C0.3002632471734478 12.062128961434379, 1.8916480788411039 7.482258817356529, 4.798229665373366 4.792965753303566 C7.704811251905628 2.1036726892506032, 14.678656337431342 0.07634970452311818, 17.41653910725143 -0.6150498945401157 C20.15442187707152 -1.3064494936033495, 21.10719049357573 0.27637613506861375, 21.2255262842939 0.6445681589241623 M13.685685143261441 -0.7173404292874483 C16.82378365620751 -1.8092315363068672, 20.543043280038116 -0.7419496605514502, 23.58103901411645 1.0178038170617576 C26.61903474819478 2.777557294674965, 30.03816282610923 6.733139889271069, 31.91365954773144 9.841180436391799 C33.789156269353654 12.949220983512529, 35.75151620809534 16.56884954811208, 34.83401934384973 19.666047099786134 C33.916522479604126 22.763244651460187, 29.850112814407524 26.65204942578504, 26.40867836225779 28.42436574643612 C22.967243910108053 30.1966820670872, 17.824614429358018 30.52738100150294, 14.185412630951317 30.299945023692615 C10.546210832544617 30.072509045882292, 6.81830114505137 29.51141861004034, 4.573467571817588 27.05974987957419 C2.3286339985838063 24.608081149108042, 1.1442497694242995 19.208355100412025, 0.7164111915486266 15.589932640895716 C0.2885726136729539 11.971510181379408, 0.07204232412286937 7.915405503520943, 2.0064361045635515 5.349215122476336 C3.9408298850042334 2.7830247414317286, 10.489880503389365 0.7532890928236231, 12.32277387419272 0.19279035462807315 C14.155667244996074 -0.3677083835674768, 13.000681307122289 1.822234933686313, 13.003796329383679 1.986222693303036" stroke="#000000" stroke-width="1" fill="none"></path></g><g><g transform="translate(53.425361640908704 266.4367650854149) rotate(333.8860873697093 29.72686937848465 -0.12467588694204323)"><path d="M0.21368682570755482 -0.3232362706214189 C10.28568251260055 -0.38620786125273976, 50.526871954298656 -0.19776206139780472, 60.587005077104735 -0.07856469145783651 M-1.1332663201354445 -1.5385392580367625 C8.720066192247547 -1.4516076209812012, 49.24766275476951 0.7349674674279255, 59.35649955105753 1.2891874841526763" stroke="#000000" stroke-width="1" fill="none"></path></g><g transform="translate(53.425361640908704 266.4367650854149) rotate(333.8860873697093 29.72686937848465 -0.12467588694204323)"><path d="M30.118604271782786 9.130780859364116 C39.07741657874014 6.324429974885385, 48.842126383774385 5.116164279122241, 58.65318475683005 -0.4192446705772861 M31.366143230458945 9.083855116253638 C39.982951303046875 7.9176832169355995, 47.980142075818655 5.190158936558621, 59.32005195804657 1.927425252005519" stroke="#000000" stroke-width="1" fill="none"></path></g><g transform="translate(53.425361640908704 266.4367650854149) rotate(333.8860873697093 29.72686937848465 -0.12467588694204323)"><path d="M31.21606832257749 -11.361060810994669 C39.88256707233417 -7.753165764357309, 49.30385925373896 -2.5491398090822166, 58.65318475683005 -0.4192446705772861 M32.46360728125365 -11.407986554105147 C40.69517742014103 -6.151555767110329, 48.34823315134066 -2.453392773255067, 59.32005195804657 1.927425252005519" stroke="#000000" stroke-width="1" fill="none"></path></g></g><g transform="translate(113.64083794316673 226.8917461062906) rotate(333.8860873697093 15.5 18)"><path d="M13.723329150917403 -0.18870119045486788 C16.75730833528582 -0.9061681761490593, 20.201186005151534 0.8466793700058073, 22.92469688726254 2.9184122478671153 C25.64820776937355 4.990145125728423, 28.793318126560077 8.747752099158943, 30.064394443583446 12.24169607671298 C31.335470760606814 15.735640054267018, 31.7256242496391 20.17495027263329, 30.55115478940276 23.88207611319134 C29.376685329166417 27.589201953749388, 26.191295479612126 32.43978741987872, 23.01757768216539 34.48445112006129 C19.84385988471865 36.529114820243855, 14.811418435633177 36.95586998529112, 11.508848004722337 36.150058314286746 C8.206277573811496 35.34424664328237, 5.055694596250108 32.84062133994285, 3.2021550967003414 29.649581094035028 C1.3486155971505749 26.458540848127207, 0.2901337801761059 21.068320450851658, 0.3876110074237378 17.00381683883981 C0.48508823467136963 12.939313226827963, 1.2785131722414849 8.09406960353017, 3.7870184601861325 5.262559421963939 C6.29552374813078 2.431049240397708, 13.30916650005133 0.8244504934112147, 15.438642735091625 0.014755749442425525 C17.56811897013192 -0.7949389945263636, 16.75856070724676 0.0660038771291524, 16.5638758704279 0.40439095815120396 M15.000449924227258 -0.3956452068743346 C17.883309172466916 -0.24845518509617856, 22.162986077963637 2.607614302194875, 25.021904498063243 5.1955021402757815 C27.88082291816285 7.783389978356688, 31.575531479898125 11.448803648636733, 32.15396044482489 15.131681821611105 C32.732389409751654 18.814559994585476, 30.62544310073967 24.102987377651946, 28.492478287623836 27.292771178122006 C26.359513474508002 30.482554978592066, 22.486607401765337 32.911815051107716, 19.356171566129895 34.27038462443146 C16.225735730494453 35.6289541977552, 12.483691808820868 36.883423349945396, 9.70986327381118 35.44418861806447 C6.936034738801492 34.00495388618355, 4.460272198531435 29.28826536651442, 2.7132003560717664 25.634976233145924 C0.9661285136120981 21.981687099777428, -1.2147739001388624 17.156497040992353, -0.7725677809468294 13.524453817853503 C-0.33036166175479637 9.892410594714654, 2.5837557226862624 5.907632544692963, 5.366437071223965 3.842716894312826 C8.149118419761667 1.7778012439326885, 14.334404114105832 1.86047286728596, 15.923520310279384 1.1349599155726793 C17.512636506452935 0.4094469638593985, 15.210328323720551 -0.8633768074004771, 14.901134248265278 -0.5103608159668589" stroke="#000000" stroke-width="1" fill="none"></path></g><g transform="translate(17.868637286262924 265.03214575769186) rotate(390.1960198437294 17 15.5)"><path d="M25.156510152745618 1.1038319304962307 C28.570037359845866 2.3502086449033337, 32.03037478063849 5.942360494426904, 33.391647696288736 9.01070863289541 C34.75292061193898 12.079056771363916, 34.56181090589933 16.424238753359347, 33.32414764664709 19.51392076130727 C32.086484387394854 22.60360276925519, 28.918176548277945 25.665056027834456, 25.96566814077532 27.54880068058293 C23.013159733272698 29.4325453333314, 19.014368481880528 31.085940271984956, 15.609097201631355 30.81638867779811 C12.203825921382183 30.546837083611262, 8.1771802315544 28.35970435809168, 5.534040459280284 25.93149111546184 C2.8909006870061673 23.503277872831998, 0.016385213387903164 19.38551122012753, -0.24974143201334442 16.24710922201907 C-0.5158680774145921 13.108707223910608, 1.7878859018513822 9.647425890390137, 3.9372805868727987 7.1010791268110705 C6.086675271894215 4.554732363232004, 8.84825150898247 1.7724268715691074, 12.646626678115155 0.9690286405446731 C16.445001847247838 0.16563040952023889, 24.351524164491686 1.8047521746393904, 26.727531601668908 2.2806897406644655 C29.10353903884613 2.756627306689541, 27.204313152779882 3.596851780993837, 26.90267130117848 3.824654036695124 M14.17166000853172 1.3259198536026044 C17.694136316935886 0.5093953448154952, 21.850507497483402 1.063987441846419, 24.862424473332126 2.6159378437211167 C27.87434144918085 4.167888245595814, 31.11221195222271 7.410152074106275, 32.24316186362407 10.63762226485079 C33.37411177502542 13.865092455595306, 32.50954737045876 18.974252566164985, 31.648123941740256 21.980758988188214 C30.786700513021746 24.987265410211442, 29.823891800324517 27.115581663193446, 27.074621291313008 28.67666079699017 C24.3253507823015 30.237739930786894, 18.8372311597896 31.736853067028996, 15.152500887671192 31.347233790968552 C11.467770615552782 30.95761451490811, 7.578621548132581 28.730697722941976, 4.966239658602554 26.33894514062751 C2.3538577690725266 23.94719255831304, -0.1477907492151444 20.24168001685333, -0.5217904495089698 16.99671829708176 C-0.8957901498027951 13.751756577310188, 0.16691979451446226 9.806855812780595, 2.722241456839601 6.869174821998081 C5.27756311916474 3.9314938312155667, 13.13768449082074 0.42015053696684745, 14.810139524441864 -0.6293676476133285 C16.48259455806299 -1.6788858321935045, 12.909541827739659 0.39712934664431254, 12.756971658566343 0.5720657145170254" stroke="#000000" stroke-width="1" fill="none"></path></g><g><g transform="translate(45.37360806058928 311.8493228695854) rotate(390.1960198437294 32.122505248710524 -1.6885574739426374)"><path d="M-0.049547167494893074 1.1086778540164233 C10.423140891517201 0.5006410935272774, 52.59782346499463 -3.530187910919388, 63.388691226765516 -4.485792801901698 M-1.5346981597691776 0.645129782035947 C9.288129841412106 0.27224147049089287, 54.80806191516419 -2.4899597759296497, 65.7797086571902 -3.2034087716788053" stroke="#000000" stroke-width="1" fill="none"></path></g><g transform="translate(45.37360806058928 311.8493228695854) rotate(390.1960198437294 32.122505248710524 -1.6885574739426374)"><path d="M40.126242833926014 7.76442650234646 C47.0691827297751 5.806107231244716, 56.353978292942756 2.1096128876870885, 65.17835469707846 -3.160417325347662 M38.80248600036525 8.698313690669302 C46.393707981358226 5.638068968732295, 52.45833438273734 2.533973787229227, 66.38824823196977 -2.3895945870503783" stroke="#000000" stroke-width="1" fill="none"></path></g><g transform="translate(45.37360806058928 311.8493228695854) rotate(390.1960198437294 32.122505248710524 -1.6885574739426374)"><path d="M38.85542449666008 -12.71739527061866 C46.095168768610634 -7.587518774684561, 55.81972708555062 -4.196342063281446, 65.17835469707846 -3.160417325347662 M37.53166766309931 -11.783508082295818 C45.3687534019935 -9.46633052205245, 51.766340933581866 -7.2040799983598784, 66.38824823196977 -2.3895945870503783" stroke="#000000" stroke-width="1" fill="none"></path></g></g><g transform="translate(108.57321574054686 315.02065100211166) rotate(390.1960198437294 15.5 18)"><path d="M13.189414598880202 0.06680738793928143 C16.147197895329583 -0.871407269179505, 20.178089267486108 0.047412147208090616, 22.89427804544375 1.7867598250415018 C25.61046682340139 3.526107502874913, 28.180360289084202 6.8677730287437, 29.486547266626033 10.502893454939748 C30.792734244167864 14.138013881135796, 31.565823358854292 19.833436288164698, 30.731399910694726 23.59748238221779 C29.89697646253516 27.361528476270884, 27.44307434323378 31.0869288456282, 24.480006577668636 33.087170019258316 C21.516938812103493 35.08741119288843, 16.280125917712322 35.98614331598362, 12.952993317303877 35.598929423998484 C9.625860716895431 35.21171553201335, 6.737621501280245 33.523623125844935, 4.517210975217958 30.763886667347514 C2.2968004491556715 28.004150208850092, -0.2863797881113932 23.04889347495572, -0.36946983906984343 19.04051067301396 C-0.45255989002829367 15.032127871072198, 1.6695365412124041 9.823959923246052, 4.018670669467257 6.713589855696945 C6.36780479772211 3.603219788147838, 11.806895150152043 1.4450539960263704, 13.725334930459272 0.37829026771931495 C15.643774710766502 -0.6884734605877405, 15.51247211642617 0.21677341228806607, 15.529309351310637 0.31300748585461236 M19.126930319231935 1.287796483397301 C22.050607633643917 1.953825327662369, 25.831908066787673 5.078226141942894, 27.562517790236463 8.362399049998594 C29.293127513685253 11.646571958054293, 29.47459085082302 17.285221640595577, 29.51058865992467 20.9928339317315 C29.546586469026323 24.700446222867424, 29.752505861167137 28.029539870184834, 27.77850464484637 30.608072796814135 C25.804503428525607 33.186605723443435, 21.0609514047656 35.99592698842099, 17.666581362000084 36.4640314915073 C14.272211319234566 36.93213599459361, 10.355077890076975 35.51179712098627, 7.412284388253271 33.416699815331995 C4.469490886429567 31.321602509677714, 1.1804002397836835 27.54163090408502, 0.009820351057857835 23.89344765758161 C-1.1607595376679678 20.2452644110782, -1.2764965650264966 15.37970782355198, 0.3888050558983167 11.52760033631153 C2.05410667682313 7.6754928490710785, 6.992437731782216 2.6045240812719648, 10.001630076606737 0.7808027341389021 C13.010822421431259 -1.0429186129941606, 16.90409930798129 0.7880032618107874, 18.44395912484545 0.5852722535131534 C19.983818941709607 0.38254124521551935, 19.381536678516326 -0.9077490224701126, 19.240788977791684 -0.4355833156469018" stroke="#000000" stroke-width="1" fill="none"></path></g><g><g transform="translate(140.5 320) rotate(345.7008194490193 31.377700037136663 -2.016095396503829)"><path d="M0.31793302707374105 -1.05485012345016 C10.82786969753603 -1.6351635715613764, 53.10681138051053 -2.974518042926987, 63.72969093732536 -3.2887643676251175 M-0.9742908630520106 1.0057496163994073 C9.295341270590821 0.065139356230696, 51.92426848632594 -4.082563227241238, 62.63973321579397 -5.037940409407019" stroke="#000000" stroke-width="1" fill="none"></path></g><g transform="translate(140.5 320) rotate(345.7008194490193 31.377700037136663 -2.016095396503829)"><path d="M33.77148241987436 7.358288482431616 C46.34114577110372 3.2576183968838937, 56.568734322084424 -1.033018012423498, 63.970083598047495 -3.6946386493742462 M35.26298960270344 7.901510825049426 C40.78249434847234 5.669824213405022, 47.550798536589966 2.6095860643660806, 62.89826105441898 -5.6406421413645145" stroke="#000000" stroke-width="1" fill="none"></path></g><g transform="translate(140.5 320) rotate(345.7008194490193 31.377700037136663 -2.016095396503829)"><path d="M31.856328831950833 -13.073358272553728 C45.14035968968912 -9.908720734176129, 56.04943504339411 -6.9289754314122, 63.970083598047495 -3.6946386493742462 M33.347836014779915 -12.530135929935918 C39.211122844934586 -10.14341374919889, 46.41218074362417 -8.586857192022073, 62.89826105441898 -5.6406421413645145" stroke="#000000" stroke-width="1" fill="none"></path></g></g><g><g transform="translate(149.82189179274621 276.2811023757141) rotate(40.825995544529206 29.228858232882715 -3.4600733703453557)"><path d="M0.055210367962718054 1.0596719283610583 C10.072371775735448 -0.1049180588152352, 49.77269669139896 -4.77253240348217, 59.83265938396173 -6.276304290682878 M-1.3749429181963206 0.5703957454115152 C8.527418961454462 -0.9922162163283772, 48.76080369347845 -6.699435024572583, 59.002032226571615 -7.979818669051733" stroke="#000000" stroke-width="1" fill="none"></path></g><g transform="translate(149.82189179274621 276.2811023757141) rotate(40.825995544529206 29.228858232882715 -3.4600733703453557)"><path d="M34.20223749393273 6.330375957633043 C41.05521840137346 3.4214184632868143, 45.6154836552285 -2.660083184459735, 58.833472777778084 -8.512971381560769 M32.14962227886218 6.541329287322844 C41.04017090000083 0.847606727735962, 49.9823993823956 -2.566704964891284, 59.07199141352045 -6.979905461796429" stroke="#000000" stroke-width="1" fill="none"></path></g><g transform="translate(149.82189179274621 276.2811023757141) rotate(40.825995544529206 29.228858232882715 -3.4600733703453557)"><path d="M31.45866832055024 -14.006605887682765 C39.19345556356363 -11.273836982317407, 44.51499060179675 -11.712349951489088, 58.833472777778084 -8.512971381560769 M29.406053105479696 -13.795652557992964 C38.95619574850177 -13.220073519311562, 48.74692985498782 -10.344752116404985, 59.07199141352045 -6.979905461796429" stroke="#000000" stroke-width="1" fill="none"></path></g></g><g transform="translate(205.06048670721987 282.6774197898469) rotate(40.825995544529206 15.5 18)"><path d="M20.125133806283554 0.9021079459874244 C23.015496404920277 2.019957487736405, 26.90183476597209 5.391719192902029, 28.527294301606567 8.83707016176959 C30.152753837241043 12.282421130637152, 30.40393860476786 17.683727098974696, 29.877891020090406 21.574213759192794 C29.351843435412952 25.464700419410892, 27.681669091907555 29.876549995044012, 25.371008793541854 32.17999012307818 C23.060348495176154 34.48343025111234, 19.122682331347463 35.379685580716355, 16.013929229896195 35.394854527397776 C12.905176128444928 35.410023474079196, 9.328834829131207 34.43393867919639, 6.718490184834248 32.27100380316668 C4.10814554053729 30.10806892713697, 1.0114171663134246 26.229061083115027, 0.35186136411444124 22.41724527121952 C-0.3076944380845422 18.605429459324014, 1.1867095649909094 12.850811614654354, 2.7611553716403474 9.400108931793643 C4.335601178289785 5.949406248932931, 6.275188763835258 2.9411177213622137, 9.79853620401107 1.7130291740552543 C13.321883644186881 0.48494062674829475, 21.1574052212296 1.4797397134759822, 23.90124001269522 2.0315776479518846 C26.64507480416084 2.583415582427787, 26.51455455967303 4.547038664656147, 26.261544952804798 5.024056780910669 M18.295186905911805 -0.7160997466530361 C21.071688545808243 -0.08987262012342556, 24.824114730003842 4.32302339323266, 27.156644911099075 7.936452152848977 C29.48917509219431 11.549880912465294, 32.31869084243751 16.944652973485805, 32.29036799248321 20.964472811044864 C32.26204514252891 24.984292648603923, 29.3718879770381 29.540049118549778, 26.986707811373293 32.05537117820333 C24.601527645708487 34.57069323785688, 21.582086760140268 35.85941935664469, 17.97928699849437 36.05640516896617 C14.376487236848472 36.25339098128765, 8.043256676830202 35.62351601210885, 5.369909241497911 33.2372860521322 C2.696561806165621 30.851056092155545, 2.3623766896384937 25.497802017591948, 1.939202386500627 21.739025409106258 C1.5160280833627604 17.98024880062057, 1.7113109366606454 14.25991154226578, 2.8308634226707117 10.684626401218068 C3.950415908680778 7.109341260170357, 6.022088522062836 1.7355820811981075, 8.656517302561024 0.28731456281999357 C11.290946083059213 -1.1609529555581204, 16.5870321773083 2.0203579925536945, 18.637436105659845 1.995021290949385 C20.68784003401139 1.9696845893450756, 20.749338652256018 -0.059874515221498115, 20.958940872670308 0.13529435319413707" stroke="#000000" stroke-width="1" fill="none"></path></g><g transform="translate(13 154.5) rotate(0 136.5 13)"><text x="0" y="18" font-family="Virgil, Segoe UI Emoji" font-size="20px" fill="#000000" text-anchor="start" style="white-space: pre;" direction="ltr">Could be organised like this</text></g><g transform="translate(20 10) rotate(0 102 13)"><text x="0" y="18" font-family="Virgil, Segoe UI Emoji" font-size="20px" fill="#000000" text-anchor="start" style="white-space: pre;" direction="ltr">A sequence of tasks</text></g></svg>