<svg version="1.1" xmlns="http://www.w3.org/2000/svg" viewBox="0 0 480 430.0446252327878" width="480" height="430.0446252327878">
  <!-- svg-source:excalidraw -->
  
  <defs>
    <style>
      @font-face {
        font-family: "Virgil";
        src: url("https://excalidraw.com/FG_Virgil.woff2");
      }
      @font-face {
        font-family: "Cascadia";
        src: url("https://excalidraw.com/Cascadia.woff2");
      }
    </style>
  </defs>
  <g><g transform="translate(94.5 10.04462523278778) rotate(0 1.2292238043258124 184.93721145407764)"><path d="M-0.24500307887792583 0.6563794836401939 C-0.3948583905895551 62.123961184918876, 0.19108570565779998 308.36476447433233, 0.2940547958016395 369.91904814094306 M1.8272315753716977 -0.04462523278780273 C1.9631809361993027 61.61030460986309, 3.060286832175528 306.9123426115792, 2.635388099970296 368.27897366615946" stroke="#000000" stroke-width="1" fill="none"></path></g></g><g><g transform="translate(279 193.5446252327878) rotate(90.48686030960326 0.1617188980290507 185.51991065877493)"><path d="M0.36152777820825577 0.9073818907141684 C0.44635569403568903 62.369040130078794, 1.0597076271971066 307.6135390982032, 1.2312466636300088 369.1077000841498 M-0.9078088675718755 0.3381534380000084 C-1.0239675847472003 61.98405000123196, 0.11493526252297054 309.4267239129823, 0.40460569840855887 370.7016678795498" stroke="#000000" stroke-width="1" fill="none"></path></g></g><g transform="translate(24.5 14.04462523278778) rotate(0 15.5 13)"><text x="0" y="18" font-family="Virgil, Segoe UI Emoji" font-size="20px" fill="#000000" text-anchor="start" style="white-space: pre;" direction="ltr">red</text></g><g transform="translate(10 330.0446252327878) rotate(0 32 13)"><text x="0" y="18" font-family="Virgil, Segoe UI Emoji" font-size="20px" fill="#000000" text-anchor="start" style="white-space: pre;" direction="ltr">orange</text></g><g transform="translate(396.5 394.0446252327878) rotate(0 19 13)"><text x="0" y="18" font-family="Virgil, Segoe UI Emoji" font-size="20px" fill="#000000" text-anchor="start" style="white-space: pre;" direction="ltr">size</text></g><g transform="translate(127.5 286.0446252327878) rotate(0 13.5 12)"><path d="M17.32727264069991 0.36809665757602694 C19.89454701938468 0.9677766152155258, 23.58539024089972 2.8657564164111586, 25.241209502627044 5.024456064482512 C26.897028764354367 7.183155712553864, 27.59334001534245 10.50285413037285, 27.262188211063854 13.320294546004146 C26.93103640678526 16.13773496163544, 25.497967243801543 20.10030954204942, 23.254298676955468 21.929098558270287 C21.010630110109393 23.757887574491154, 16.69739437488355 24.350884363116357, 13.800176809987398 24.293028643329354 C10.902959245091246 24.23517292354235, 8.241957325280621 23.174753891858508, 5.870993287578553 21.581964239548256 C3.500029249876486 19.989174587238004, 0.4097781404324211 17.119790812093136, -0.42560741622500764 14.736290729467854 C-1.2609929728824363 12.35279064684257, -0.7242589702987428 9.541459070739654, 0.8586799476339806 7.280963743796553 C2.4416188655667037 5.020468416853452, 5.786536389797966 2.138351360417189, 9.072026091371333 1.1733187678092527 C12.3575157929447 0.2082861752013162, 18.25190528756474 1.1981299998618418, 20.57161815707418 1.4907681881489339 C22.89133102658362 1.783406376436026, 23.14861436015756 2.8187710701984385, 22.990303308427983 2.9291478975318057 M15.15415104054145 -0.700302426311664 C17.87674673839287 -0.8978959809574487, 19.14959106369583 0.136451479165155, 20.97771149364425 1.8391273867786335 C22.80583192359267 3.5418032943921123, 25.662816208445268 6.981323725303707, 26.12287362023196 9.515753019369207 C26.582931032018653 12.050182313434707, 24.875480931774455 14.870663276378442, 23.7380559643644 17.045703151171637 C22.600630996954344 19.22074302596483, 21.876534486656897 21.35130420782184, 19.298323815771617 22.56599226812837 C16.720113144886337 23.780680328434897, 11.387284346920165 25.29720969417528, 8.268791939052722 24.333831513010796 C5.150299531185279 23.370453331846313, 2.0144961439905815 19.269439711383637, 0.5873693685669643 16.785723181141478 C-0.8397574068566529 14.30200665089932, -1.218802666374236 11.795176838513655, -0.29396871348898124 9.431532331557852 C0.6308652393962735 7.06788782460205, 3.885837886760481 4.40600644063547, 6.136373085878493 2.6038561394066626 C8.386908284996505 0.8017058381778555, 11.96782734328522 -1.1849419327187414, 13.20924248121909 -1.3813694758149904 C14.450657619152958 -1.5777970189112394, 13.252434519191892 1.07224611056573, 13.584863913481705 1.4252908808291682" stroke="#000000" stroke-width="1" fill="none"></path></g><g transform="translate(377 102.04462523278778) rotate(0 13.5 12)"><path d="M7.562028601481196 0.07960601640609966 C10.289073183862419 -0.9947875804365693, 15.779538243787208 -1.0096016706736168, 18.640815314489085 0.04307192529018522 C21.502092385190963 1.0957455212539873, 23.475774337117866 4.234933766663186, 24.72969102569246 6.395647592188912 C25.983607714267055 8.556361417714639, 26.58950061807026 10.611654479532607, 26.16431544593666 13.007354878444541 C25.739130273803056 15.403055277356476, 24.088700413686535 18.94130331897128, 22.17857999289084 20.769849985660514 C20.268459572095143 22.59839665234975, 17.60056161519721 24.01587481905423, 14.70359292116248 23.97863487857994 C11.806624227127749 23.94139493810565, 7.2234303088998 21.992122384388715, 4.79676782868245 20.546410342814774 C2.3701053484650996 19.100698301240833, 0.5249542459753949 17.716274078376337, 0.14361803985837795 15.304362629136286 C-0.23771816625863895 12.892451179896234, 1.114077795887675 8.523647704617888, 2.5087505919803483 6.074941647374465 C3.903423388073022 3.6262355901310426, 7.477426862292838 1.5446883339588928, 8.511654816414417 0.6121262856757514 C9.545882770535995 -0.32043576260738993, 8.697406917810188 0.25400779273993257, 8.714118316709818 0.4795693576756168 M17.75233706498258 1.2025014792585154 C20.32921043674132 1.637033626142235, 21.106863204240806 3.5643786121401293, 22.806270860788636 5.531500850659754 C24.505678517336467 7.498623089179378, 27.8396075334582 10.500082111352167, 27.948783004269565 13.005234910376263 C28.05795847508093 15.510387709400359, 25.55382819126375 18.61350216612421, 23.461323685656836 20.56241764480433 C21.368819180049922 22.51133312348445, 18.013050440630728 24.42646273250964, 15.393755970628087 24.698727782456984 C12.774461500625446 24.970992832404328, 10.041398116864942 23.64089487618756, 7.745556865640993 22.196007944488393 C5.449715614417045 20.751121012789227, 2.8800816934820817 18.38586704889171, 1.6187084632843955 16.02940619226198 C0.35733523308670945 13.67294533563225, -0.9428036825422612 10.284150251467844, 0.1773174844548766 8.057242804710013 C1.2974386514520144 5.8303353579521815, 5.738330543104306 3.836415948585671, 8.339435465267222 2.6679615117149957 C10.940540387430138 1.4995070748443207, 14.615536125373815 1.3595757325759426, 15.783947017432373 1.0465161834859629 C16.95235790949093 0.7334566343959832, 15.2382315875675 0.7482010503138712, 15.349900817618572 0.7896042171751176" stroke="#000000" stroke-width="1" fill="none"></path></g><g transform="translate(194 245.04462523278778) rotate(0 13.5 12)"><path d="M9.467601074386714 1.3411550038012532 C12.081187394860695 0.7166615928460137, 16.054911993775548 0.17307217728889757, 18.91384987825267 1.0231408479168493 C21.77278776272979 1.873209518544801, 25.469231504166103 4.1177138618592695, 26.621228381249434 6.441567027568964 C27.773225258332765 8.765420193278658, 26.7818390564225 12.260761159772288, 25.825831140752655 14.966259842175017 C24.86982322508281 17.671758524577747, 23.18303233078084 21.24902742274546, 20.885180887230376 22.67455912198534 C18.587329443679913 24.10009082122522, 15.046262790233937 23.939276807734842, 12.038722479449882 23.51945003761429 C9.031182168665827 23.09962326749374, 4.710017140000368 21.7847844127089, 2.8399390225260444 20.155598501262034 C0.9698609050517204 18.52641258981517, 0.9100314021176118 16.347536013973357, 0.8182537746039387 13.744334568933102 C0.7264761470902655 11.141133123892846, 0.6280312728394044 6.913710216378142, 2.2892732574440053 4.536389831020502 C3.9505152420486063 2.1590694456628623, 9.293996021607803 0.2992897219077637, 10.785705682231544 -0.5195877432127372 C12.277415342855285 -1.338465208333238, 11.158529312860027 -0.7669680300817328, 11.23953122118645 -0.3768749597025032 M12.448033446784066 -1.195472652787723 C15.218319774676408 -1.7904669794728392, 19.072106852324396 1.1737168488685459, 21.48015568338717 2.7258721446713405 C23.888204514449946 4.278027440474135, 26.04334964330986 5.837331847856152, 26.89632643316072 8.117459122029045 C27.74930322301158 10.397586396201937, 27.62130803811866 13.76964953129123, 26.598016422492336 16.406635789708695 C25.574724806866012 19.04362204812616, 23.38582113706671 22.55476041657839, 20.756576739402778 23.93937667253383 C18.127332341738846 25.323992928489268, 13.740600251901126 25.593199241038523, 10.822550036508735 24.714333325441324 C7.904499821116344 23.835467409844124, 4.960243950627084 20.640482313528747, 3.24827544704843 18.666181178950627 C1.5363069434697756 16.691880044372507, 0.31706360672651446 15.390858927980506, 0.5507390150368092 12.868526517972608 C0.784414423347104 10.34619410796471, 2.693443040914415 5.8038886201768385, 4.650327896910198 3.5321867189032403 C6.607212752905982 1.2604848176296426, 11.093731876271518 -0.3069332495647217, 12.29204815101151 -0.7616848896689792 C13.490364425751503 -1.2164365297732367, 11.961247911281 0.42900302004324775, 11.840225545350155 0.8036768782776953" stroke="#000000" stroke-width="1" fill="none"></path></g><g transform="translate(180 297.0446252327878) rotate(0 13.5 12)"><path d="M11.429617503874448 -0.22451408983290122 C14.175432767806626 -0.6652982330884496, 17.10260286764497 0.9249541978767513, 19.399094111566708 2.0704260534370444 C21.695585355488447 3.215897908997338, 24.10093361585909 4.4346446640398, 25.208564967404882 6.648317043528857 C26.316196318950674 8.861989423017915, 26.64916603641319 12.787554799258416, 26.04488222084145 15.352460330371388 C25.44059840526971 17.91736586148436, 24.011989541582242 20.764794918791686, 21.58286207397444 22.037750230206683 C19.153734606366637 23.31070554162168, 14.485842157103312 23.164927520637736, 11.47011741519464 22.990192198861372 C8.454392673285968 22.81545687708501, 5.24018679950582 22.764195693608794, 3.4885136225224045 20.989338299548496 C1.7368404455389885 19.214480905488198, 1.1550432047805044 15.057641316235724, 0.9600783532941435 12.34104783449959 C0.7651135018077827 9.624454352763458, 0.7130776882617014 6.774551128462049, 2.3187245136042396 4.689777409131692 C3.924371338946778 2.605003689801336, 9.058243574542026 0.5460058673720153, 10.593959305349372 -0.1675944814825474 C12.12967503615672 -0.8811948303371101, 11.303151612211794 0.20644767586849078, 11.533018898448322 0.408175316004316 M14.222389784193634 1.0640074178609105 C16.88188109031853 1.2253320255623585, 22.487431952312413 2.8103186641796105, 24.60375420822878 4.678392036791944 C26.720076464145144 6.546465409404278, 27.01456907715078 9.664746365471693, 26.92032331969182 12.272447653534913 C26.82607756223286 14.880148941598133, 25.60321089871741 18.405936871845036, 24.038279663475024 20.324599765171264 C22.473348428232637 22.243262658497493, 20.20945771357532 23.365669916407626, 17.530735908237503 23.78442501349229 C14.852014102899687 24.20318011057695, 10.86829233812056 23.984723807462196, 7.965948831448132 22.837130347679242 C5.063605324775704 21.68953688789629, 1.12778547032571 19.137321426691884, 0.1166748682029386 16.898864254794578 C-0.8944357339198328 14.660407082897274, 0.9224465275397167 11.80140435553816, 1.899285218711503 9.406387316295417 C2.8761239098832894 7.0113702770526745, 3.8515582938001782 4.0243064182627695, 5.977707015233657 2.5287620193381226 C8.103855736667136 1.033217620413476, 12.995265038764746 0.8151591136299741, 14.656177547312375 0.43312092274753766 C16.317090055860003 0.051082731865101316, 15.800472582234667 0.00012920791111881158, 15.943182066519427 0.23653287404350465" stroke="#000000" stroke-width="1" fill="none"></path></g><g transform="translate(223 277.0446252327878) rotate(0 13.5 12)"><path d="M7.348029351415589 0.8811932711979473 C10.037974205486563 -0.5573780788325686, 15.092829399709847 -0.9314758500282148, 17.863943248036907 -0.27549657413219286 C20.635057096363965 0.38048270176382903, 22.48430504371349 2.464126144620868, 23.974712441377946 4.817068926574079 C25.4651198390424 7.170011708527289, 26.975230336136015 11.288901505389841, 26.80638763402365 13.84216011758707 C26.637544931911286 16.3954187297843, 25.153781221361356 18.47611359937509, 22.96165622870377 20.136620599757453 C20.769531236046184 21.797127600139817, 16.403435790420815 23.374858694832447, 13.653637678078143 23.80520211988125 C10.903839565735472 24.235545544930055, 8.717869727426997 24.246834358267396, 6.4628675546477465 22.71868115005027 C4.207865381868497 21.190527941833142, 1.0007798118329632 17.40561563422006, 0.12362464140264429 14.636282870578494 C-0.7535305290276745 11.86695010693693, -0.2022194296422708 8.544117874215091, 1.1999365320658342 6.102684568200879 C2.602092493773939 3.6612512621866666, 7.0613872112414 0.8226024768482761, 8.536560411651275 -0.012316965506782296 C10.01173361206115 -0.8472364078618407, 9.969317342608154 0.7305992289528949, 10.050975734525082 1.0931679140705288 M20.711529597387283 2.3372632651268113 C23.16552573558704 3.5475803276682125, 25.557948540009143 5.159092081582498, 26.588541785527784 7.380600049696075 C27.619135031046426 9.602108017809652, 27.739928853178398 12.972745669519535, 26.895089070499136 15.66631107380827 C26.050249287819874 18.359876478097007, 24.052959872796944 22.012072632831526, 21.519503089452215 23.54199247542849 C18.986046306107486 25.071912318025454, 14.644095279432515 25.558657180634537, 11.694348370430763 24.845830129390063 C8.744601461429012 24.133003078145588, 5.677339905348951 21.130248590422905, 3.821021635441701 19.26503016796164 C1.9647033655344506 17.399811745500376, 0.5122233217906927 16.17576645806817, 0.5564387509872599 13.654519594622478 C0.6006541801838271 11.133272731176783, 2.275349116683741 6.51667044685448, 4.086314210621104 4.137548987287472 C5.8972793045584675 1.758427527720464, 8.756507832669305 -0.2331606061496994, 11.422229314611439 -0.6202091627795703 C14.087950796553573 -1.0072577194094412, 18.730830553045923 1.4184136635332256, 20.080643102273907 1.815257647508247 C21.43045565150189 2.2121016314832684, 19.587159646839066 1.4467401263619826, 19.521104609979346 1.760854741070558" stroke="#000000" stroke-width="1" fill="none"></path></g><g transform="translate(146 238.04462523278778) rotate(0 13.5 12)"><path d="M8.021809711970135 1.7263255771202566 C10.200788876812755 0.6140960693452433, 14.003780984125243 -0.7170283850246865, 16.741890938306316 -0.11588138661988623 C19.48000089248739 0.485265611784914, 22.63965892728088 3.0719668607746775, 24.450469437056572 5.333207567549058 C26.261279946832264 7.5944482743234385, 27.9662208921224 11.0313236640377, 27.60675399696047 13.451562854026399 C27.24728710179854 15.871802044015098, 24.553583172011898 17.96797232519628, 22.293668066085004 19.85464270748125 C20.03375296015811 21.741313089766223, 16.710629567429155 24.535469651150322, 14.0472633613991 24.771585147736225 C11.383897155369047 25.007700644322128, 8.661040074835793 22.968345656509275, 6.313470829904681 21.271335686996665 C3.9659015849735697 19.574325717484054, 0.8928892274297912 17.09680088605583, -0.03815210818756576 14.589525330660557 C-0.9691934438049227 12.08224977526528, -0.6234393236951261 8.515041644383034, 0.7272228162005394 6.2276823546250055 C2.077884956096205 3.9403230648669774, 6.536807805751527 1.8202212167933123, 8.065820731186427 0.8653695921123887 C9.594833656621327 -0.08948203256853471, 9.648367311970528 0.16920015272988742, 9.901300368809942 0.4985726065394651 M18.62521364030323 1.1797812788686635 C21.500520452327407 1.7237904001676476, 23.495293021349614 3.9591222207936796, 24.870467141768835 6.176416945061846 C26.245641262188055 8.393711669330013, 27.03323160131256 12.024377829079631, 26.876258362818547 14.483549624477664 C26.719285124324532 16.942721419875696, 25.91965259491271 19.294178374793432, 23.928627710804754 20.93144771745004 C21.9376028266968 22.56871706010665, 18.18679775147529 24.128395908908658, 14.930109058170817 24.307165680417306 C11.673420364866345 24.485935451925954, 6.630191396661421 23.42893139819465, 4.388495550977918 22.004066346501922 C2.1467997052944154 20.579201294809195, 2.034116081493793 18.232860195499075, 1.4799339840698007 15.757975370260944 C0.9257518866458083 13.28309054502281, 0.05232893624661883 9.586258461494317, 1.063402966433964 7.154757395073126 C2.074476996621309 4.723256328651935, 4.706410655818754 2.286993002025863, 7.546378165193871 1.1689689717337952 C10.386345674568988 0.050944941441727565, 16.40209669875973 0.41793764983958503, 18.10320802268466 0.44661321332072035 C19.804319346609592 0.47528877680185566, 17.685397333621147 1.0668675940476173, 17.753046108743447 1.341022352620607" stroke="#000000" stroke-width="1" fill="none"></path></g><g transform="translate(163 329.0446252327878) rotate(0 13.5 12)"><path d="M20.701897925649043 0.7401676359940055 C23.183090001958448 1.740710340015095, 24.502243081001094 4.589515375499509, 25.41424843588115 7.216625831812556 C26.326253790761204 9.843736288125603, 26.98411495986735 14.070026841821473, 26.17393005492937 16.50283037387229 C25.36374514999139 18.935633905923105, 23.149455217350948 20.611655587678147, 20.553139006253268 21.81344702411745 C17.95682279515559 23.015238460556755, 13.323745571547393 23.86557350477444, 10.59603278834329 23.71357899250812 C7.8683200051391875 23.561584480241798, 6.003836574045697 22.863111076588833, 4.186862307028651 20.90147995051953 C2.369888040011605 18.939848824450227, -0.07767000047045927 14.79491376278963, -0.30581281375898683 11.943792236092298 C-0.5339556270475144 9.092670709394966, 1.0217561736789447 5.868751277165364, 2.8180054272974857 3.794750790335536 C4.6142546809160265 1.7207503035057088, 7.509052959104453 -0.2250865428636451, 10.47168270795226 -0.5002106848866674 C13.434312456800066 -0.7753348269096898, 18.912137614018924 1.6387442072167735, 20.593783920384322 2.1440059381974024 C22.27543022674972 2.6492676691780312, 20.53599499780627 2.325115610219391, 20.56156054614465 2.531359700997106 M8.314524309484376 1.0786529634194562 C10.659684817210845 -0.2636591103189001, 14.617926206480321 -0.49779722920479574, 17.45354472147064 0.39757329393979823 C20.289163236460958 1.2929438170843923, 23.74195799263373 4.195561907848832, 25.328235399426283 6.45087610228702 C26.914512806218838 8.706190296725207, 27.289615401933432 11.732722006073532, 26.971209162225954 13.92945846056892 C26.652802922518475 16.12619491506431, 25.362402625894248 17.764197692614246, 23.41779796118142 19.631294829259353 C21.473193296468594 21.49839196590446, 18.025969018334333 24.84461246158524, 15.303581173948984 25.13204128043955 C12.581193329563636 25.419470099293864, 9.422901534210787 23.16416396315996, 7.0834708948693255 21.355867742385232 C4.744040255527865 19.547571521610504, 2.193447758822088 16.603433190383285, 1.2669973379002197 14.282263955791189 C0.3405469169783514 11.96109472119909, 0.4723752183320804 9.588736177688284, 1.5247683693381155 7.428852334832643 C2.5771615203441507 5.268968491977002, 6.441639218388782 2.1228707495305428, 7.581356243936431 1.3229608986573425 C8.72107326948408 0.5230510477841421, 8.182828147894611 2.669317831034148, 8.363070522624007 2.6293932295934415" stroke="#000000" stroke-width="1" fill="none"></path></g><g transform="translate(327 91.04462523278778) rotate(0 13.5 12)"><path d="M9.207862448216032 -0.21022161718977728 C11.78351284469074 -1.1575487330162595, 15.881432668100226 -0.21879295860244574, 18.747289600641306 0.956245278642502 C21.613146533182388 2.13128351588745, 25.168786314079966 4.649029521556168, 26.403004043462516 6.840007806279909 C27.637221772845066 9.03098609100365, 27.025891004195984 11.48049022017584, 26.152595976936603 14.10211498698495 C25.27930094967722 16.72373975379406, 23.29585949851987 20.978364560862413, 21.16323387990624 22.569756407134566 C19.03060826129261 24.16114825340672, 16.27788983339734 24.00602658551916, 13.35684226525482 23.650466064617856 C10.4357946971123 23.294905543716553, 5.977350159575479 22.243725395140853, 3.63694847105112 20.436393281726748 C1.2965467825267614 18.629061168312642, -0.3534520091807834 15.328668150737983, -0.6855678658913344 12.806473384133218 C-1.0176837226018856 10.284278617528454, -0.5451250358800932 7.475200629889977, 1.644253330787814 5.303224682098156 C3.833631697455721 3.131248734306335, 10.311606435226802 0.45447756356311775, 12.450702334116109 -0.22538230261770664 C14.589798233005416 -0.905242168798531, 14.419362906611253 1.1232924701289217, 14.478828724123657 1.2240654850132096 M17.52015797379458 1.1038434127503312 C20.03254660034584 1.736235493632766, 23.12174731144651 4.31260829378966, 24.91375571225333 6.398010492814267 C26.70576411306015 8.483412691838874, 28.499940434611464 11.151728053884154, 28.272208378635504 13.616256606897974 C28.044476322659545 16.08078515991179, 26.051512363838754 19.365207800788834, 23.54736337639757 21.18518181089718 C21.043214388956386 23.005155821005527, 16.09934540799798 24.27375415559276, 13.247314453988409 24.536100667548045 C10.395283499978838 24.79844717950333, 8.676987091974633 24.29039186106945, 6.435177652340142 22.7592608826289 C4.193368212705652 21.228129904188354, 0.7606437727800524 18.02211264695107, -0.20354218381853784 15.349314796904764 C-1.167728140417128 12.676516946858458, -0.8512590656517498 9.153939779917721, 0.6500619127486011 6.722473782351067 C2.151382891148952 4.291007784784413, 5.951983020536259 1.6989002284510044, 8.804383686583568 0.7605188115048378 C11.656784352630877 -0.1778626054413288, 16.103185166836212 1.025888587038418, 17.76446590903246 1.0921852806740677 C19.425746651228707 1.1584819743097174, 19.061017824708017 1.1328458875158824, 18.77206813976106 1.158298973318736" stroke="#000000" stroke-width="1" fill="none"></path></g><g transform="translate(384 75.04462523278778) rotate(0 13.5 12)"><path d="M11.47222260572925 -0.3095752964396521 C14.03681529915166 -0.47699324743156557, 18.436477263210154 1.3361697141945479, 20.9361860793258 2.7714156372888326 C23.435894895441447 4.206661560383117, 25.809896141334264 5.973119003587806, 26.47047550242312 8.301900242126056 C27.131054863511977 10.630681480664306, 25.947415240332067 14.171891421128816, 24.89966224585894 16.744103068518335 C23.851909251385816 19.316314715907854, 22.68397965314656 22.650065073601723, 20.183957535584376 23.73517012646317 C17.68393541802219 24.820275179324618, 12.854122163094262 24.162190433001285, 9.89952954048582 23.25473338568701 C6.94493691787738 22.347276338372737, 4.154268147514678 20.433297760899837, 2.456401799933726 18.290427842577525 C0.7585354523527743 16.147557924255214, -0.5322171633587646 12.768215509807732, -0.2876685449998888 10.397513875753143 C-0.04311992664101302 8.026812241698554, 1.6650957387619303 5.748317135094659, 3.9236935100869808 4.066218038249998 C6.182291281412031 2.3841189414053368, 11.260278140473751 0.82573872792051, 13.263918082950413 0.30491929468517753 C15.267558025427075 -0.21590013855015489, 16.04458182315547 0.689334108617663, 15.945533164946957 0.9413014388380034 M18.270727846919144 0.6122385463341171 C20.971308248650992 1.4774554109717557, 24.36490944492652 4.737256216768527, 25.799001806658744 7.0822305041328395 C27.233094168390966 9.427204791497152, 27.375105211532517 12.503617676819566, 26.875282017312472 14.682084270519995 C26.375458823092426 16.860550864220425, 24.870429160774815 18.403584073293505, 22.800062641338478 20.15303006633541 C20.72969612190214 21.902476059377317, 17.186732130501788 25.05331355868981, 14.453082900694444 25.178760228771438 C11.7194336708871 25.304206898853067, 8.629089490561045 22.84452621390028, 6.398167262494413 20.905710086825177 C4.167245034427781 18.966893959750074, 1.8164940368170241 15.905018650015847, 1.0675495322946542 13.545863466320808 C0.3186050277722844 11.18670828262577, 0.6886606538718327 8.83834077166402, 1.904500235360194 6.75077898465494 C3.1203398168485554 4.66321719764586, 5.636825441311041 1.8351983928717814, 8.362587021224822 1.020492744266324 C11.088348601138604 0.20578709566086661, 16.65085993191299 2.0864829653495414, 18.25906971484288 1.8625450930221952 C19.86727949777277 1.6386072206948492, 18.2475073735708 -0.169258251327688, 18.011845718804175 -0.32313448969775216" stroke="#000000" stroke-width="1" fill="none"></path></g><g transform="translate(334 38.04462523278778) rotate(0 13.5 12)"><path d="M18.217794670923244 0.7527820807547538 C21.063742798738712 1.6365981028776821, 24.799806615690777 4.239861791402896, 26.144518970350447 6.381610149523569 C27.489231325010117 8.523358507644241, 27.039120097250578 10.956226817876813, 26.28606879888126 13.603272229478788 C25.533017500511942 16.250317641080763, 23.68510734335301 20.584314158892052, 21.626211180134533 22.263882619135423 C19.567315016916055 23.943451079378793, 16.861023037403676 23.926569746341784, 13.932691819570383 23.68068299093902 C11.004360601737092 23.434796235536254, 6.4815142157967784 22.516040856871975, 4.056223873134787 20.788562086718823 C1.6309335304727952 19.06108331656567, -0.1641610658098216 15.82533648238436, -0.6190502364015664 13.315810370020111 C-1.0739394069933113 10.806284257655863, -0.4063793554904471 7.903884105158564, 1.3268888495843179 5.731405412533331 C3.060157054659083 3.5589267199080967, 6.6571435647220945 0.8464872896808041, 9.780558994047023 0.28093821426870846 C12.903974423371952 -0.2846108611433872, 18.137934696138885 2.1738781520281316, 20.067381425533895 2.3381109600607566 C21.996828154928906 2.5023437680933815, 21.40964640904422 1.1443186165906873, 21.357239370417084 1.2663350624644583 M16.160077561549627 1.050465028692427 C19.133150593577767 1.2931956684724761, 23.46820186719328 2.5943567596198305, 25.433504836831517 4.518238360264791 C27.398807806469755 6.442119960909751, 28.38512076441102 9.934912889717744, 27.951895379379057 12.593754632562188 C27.518669994347093 15.252596375406632, 24.706379470764475 18.383075422658703, 22.83415252663974 20.47128881733146 C20.961925582515008 22.559502212004215, 19.53011992243843 24.69564335301399, 16.718533714630667 25.12303500059872 C13.906947506822902 25.55042664818345, 8.781573900431438 24.533672686824712, 5.964635279793155 23.03563870283984 C3.1476966591548727 21.53760471885497, 0.5843860097503262 18.724977057134765, -0.18309800919902663 16.134831096689492 C-0.9505820281483794 13.544685136244219, 0.13058875749065368 9.85102003077078, 1.3597311660970384 7.494762940168195 C2.588873574703423 5.138505849565611, 4.51664761874917 3.14678567493634, 7.1917564424392815 1.9972885530739894 C9.866865266129393 0.847791431211639, 16.118385557775344 0.9298331619074582, 17.410384108237704 0.5977802089940933 C18.702382658700063 0.2657272560807285, 15.331754633837104 -0.023733554119338567, 14.943747745213448 0.0049708355938005155" stroke="#000000" stroke-width="1" fill="none"></path></g><g transform="translate(266 171.04462523278778) rotate(0 13.5 12)"><path d="M18.329545767411027 0.7906275935587139 C20.85772402951505 1.6535845212564997, 23.480260725686655 4.344867848296719, 25.01348059069504 6.566656680071295 C26.546700455703423 8.788445511845872, 28.205458604709513 11.789657215570577, 27.52886495746134 14.121360584206169 C26.85227131021317 16.45306395284176, 23.49269684682206 18.796169894649438, 20.953918707206007 20.556876891884848 C18.415140567589955 22.317583889120257, 15.11631486889581 24.791413359627793, 12.296196119765026 24.685602567618616 C9.476077370634243 24.57979177560944, 5.947594937941846 21.669607680937922, 4.033206212421312 19.922012139829796 C2.118817486900779 18.17441659872167, 1.116282690152859 16.74333628534282, 0.8098637666418291 14.20002932096985 C0.5034448431307992 11.65672235659688, 0.6014679144935815 6.78861206822055, 2.194692671355133 4.66217035359197 C3.7879174282166845 2.53572863896339, 7.447700706732126 1.970122543066322, 10.36921230781114 1.4413790331983716 C13.290723908890152 0.9126355233304212, 18.030586345883695 1.575542113254685, 19.723762277829213 1.4897092943842676 C21.41693820977473 1.4038764755138502, 20.77142295908044 0.7352771578420949, 20.528267899484245 0.9263821199758677 M13.45662898970853 1.370122156256853 C16.168618831202235 1.2384264984635456, 20.873297757320607 1.8892710391709358, 23.280588137034787 3.472634392847768 C25.687878516748967 5.0559977465246, 27.768242715835708 8.322904656962903, 27.900371267993606 10.870302278317846 C28.032499820151504 13.417699899672789, 26.051368678767226 16.43467339483698, 24.07335944998217 18.757020120977423 C22.095350221197116 21.079366847117864, 18.709249308911126 24.12521584296923, 16.032315895283276 24.8043826351605 C13.355382481655427 25.48354942735177, 10.40936346230342 24.17171690961824, 8.01175896821508 22.832020874125043 C5.614154474126741 21.492324838631845, 3.1449543549342893 19.00338692682663, 1.646688930753239 16.766206422201314 C0.14842350657218906 14.529025917576, -1.7559872599891428 11.85392025368916, -0.9778335768712196 9.408937846373153 C-0.1996798937532963 6.963955439057145, 3.703247439424717 3.6903518577194117, 6.315611029460779 2.096311978305268 C8.927974619496842 0.5022720988911245, 13.050637045191959 -0.06323291302161611, 14.696347963345154 -0.15530143011170772 C16.34205888149835 -0.24736994720179933, 16.43542321184021 1.342911474752712, 16.189876538379952 1.5439008757647184" stroke="#000000" stroke-width="1" fill="none"></path></g><g transform="translate(352 74.04462523278778) rotate(0 13.5 12)"><path d="M13.457871249838655 -0.45387146487297514 C16.279109708543416 -0.3987529843462247, 20.207173017422864 2.086340043867228, 22.355066202265967 3.6962793904442037 C24.50295938710907 5.3062187370211795, 26.03800988111534 6.917194730158007, 26.34523035889727 9.20576461458888 C26.652450836679197 11.494334499019752, 25.465474162246448 15.138424182340316, 24.198389068957542 17.427698697029438 C22.931303975668637 19.71697321171856, 21.462894312050842 21.855103817373514, 18.742719799163844 22.94141170272361 C16.022545286276845 24.027719588073705, 10.60258304355999 24.764024267974147, 7.877341991635552 23.945546009130002 C5.152100939711113 23.127067750285857, 3.818056552914462 20.22253442042607, 2.391273487617216 18.030542149658732 C0.9644904223199695 15.838549878891396, -1.2451740533286433 13.248555603658557, -0.6833564001479271 10.793592384525983 C-0.1215387469672109 8.338629165393408, 3.0128275310335435 4.922233809545889, 5.762179406701513 3.300762834863283 C8.511531282369482 1.6792918601806772, 14.013254938401673 1.5560174948834413, 15.812754853859891 1.0647665364303478 C17.61225476931811 0.5735155779772543, 16.581791363308316 0.280753546692267, 16.559178899450828 0.35325708414472246 M16.665262823308375 0.28498326256612216 C19.20284996922652 0.8430291217247398, 21.719635115828872 3.0883876182449734, 23.41344510460551 4.894141983208282 C25.10725509338215 6.699896348171591, 26.73588435969391 8.8534949672051, 26.828122755968216 11.119509452345977 C26.920361152242524 13.385523937486854, 25.51649755390135 16.338566555450548, 23.96687548225135 18.49022889405354 C22.41725341060135 20.641891232656533, 20.328264671751185 23.273273803849534, 17.530390326068215 24.029483483963944 C14.732515980385243 24.785693164078353, 9.974492730185574 24.522424505596113, 7.1796294081535175 23.027486974739986 C4.38476608612146 21.53254944388386, 1.750795387950172 17.430420161534297, 0.761210393875869 15.059858298827173 C-0.22837460019843414 12.689296436120049, 0.3205073482492744 11.019192195469333, 1.2421194437076988 8.80411579849724 C2.163731539166123 6.589039401525145, 3.9745963344210637 2.976244939116115, 6.290882966626415 1.7693999169946046 C8.607169598831767 0.5625548948730945, 13.427796609798344 2.03541480944313, 15.139839236939808 1.563045665768179 C16.851881864081275 1.0906765220932282, 16.592068339580724 -1.0055515524837844, 16.563138729475206 -1.064814945055101" stroke="#000000" stroke-width="1" fill="none"></path></g><g transform="translate(309 58.04462523278778) rotate(0 13.5 12)"><path d="M10.930824540184158 0.26795614831508985 C13.81247125811593 -0.3235505559646944, 18.869733392849056 0.10534414716056784, 21.295742036917897 1.2499144245432703 C23.721750680986737 2.3944847019259727, 24.790464552372136 4.511343691489589, 25.486876404597204 7.1353778126113045 C26.183288256822273 9.75941193373302, 26.440335559348064 14.590102960335855, 25.47421315026832 16.99411915127356 C24.508090741188575 19.398135342211262, 21.999233479762346 20.32511959627891, 19.69014195011873 21.55947495823753 C17.381050420475113 22.79383032019615, 14.384799015532618 24.88477143244933, 11.619663972406617 24.40025132302528 C8.854528929280615 23.91573121360123, 4.878375771654293 20.606502459788523, 3.0993316913627194 18.652354301693233 C1.320287611071146 16.698206143597943, 0.8210325922879042 15.033706410744626, 0.9453994906571754 12.675362374453535 C1.0697663890264468 10.317018338162443, 1.5402956576362006 6.719683159257172, 3.8455330815783473 4.502290083946686 C6.150770505520494 2.284897008636201, 12.773126111851486 -0.03238756261027442, 14.776824034310057 -0.6289960774093775 C16.780521956768627 -1.2256045922084806, 15.998751370508645 0.5714746925582512, 15.867720616329773 0.9226389951520684 M18.72216968345876 0.7731514238247961 C21.710508633247745 1.2981620235588327, 25.1021120502891 3.943726421032883, 26.360513622899457 6.197849549070015 C27.618915195509814 8.451972677107147, 27.175735797294017 11.55668979055861, 26.272579119120905 14.297890192047587 C25.369422440947794 17.039090593536564, 23.09801034080402 21.03088961153339, 20.941573553860792 22.645051958003883 C18.785136766917564 24.259214304474376, 16.00896834509396 24.30891768431918, 13.333958397461528 23.982864270870543 C10.658948449829095 23.656810857421906, 7.335285731288573 22.307916940365025, 4.8915138680662 20.688731477312057 C2.4477420048438274 19.06954601425909, -0.9356320114130883 16.77955318697015, -1.328672781872708 14.26775149255274 C-1.7217135523323277 11.75594979813533, 0.7697732221807874 7.932329318948483, 2.5332692453084817 5.61792131080759 C4.296765268436176 3.303513302666698, 6.3411428833347365 0.9637209304565401, 9.252303356893458 0.3813034437073881 C12.16346383045218 -0.20111404304176383, 18.703344688239778 2.0374753546301783, 20.000232086660816 2.123416390312679 C21.297119485081854 2.2093574259951794, 17.37517758033921 0.7392738694067541, 17.033627747419683 0.8969496578023914" stroke="#000000" stroke-width="1" fill="none"></path></g><g transform="translate(234.5 320.0446252327878) rotate(0 37.5 13)"><text x="0" y="18" font-family="Virgil, Segoe UI Emoji" font-size="20px" fill="#000000" text-anchor="start" style="white-space: pre;" direction="ltr">oranges</text></g><g transform="translate(372 39.04462523278778) rotate(0 49 13)"><text x="0" y="18" font-family="Virgil, Segoe UI Emoji" font-size="20px" fill="#000000" text-anchor="start" style="white-space: pre;" direction="ltr">grapefruit</text></g><g transform="translate(299 177.04462523278778) rotate(0 4.5 13)"><text x="0" y="18" font-family="Virgil, Segoe UI Emoji" font-size="20px" fill="#000000" text-anchor="start" style="white-space: pre;" direction="ltr">?</text></g></svg>